<mxfile host="Electron" agent="Mozilla/5.0 (X11; Linux x86_64) AppleWebKit/537.36 (KHTML, like Gecko) draw.io/24.7.5 Chrome/126.0.6478.183 Electron/31.3.0 Safari/537.36" version="24.7.5">
  <diagram name="Страница — 1" id="9RkODGrqn85hvArSjEiE">
    <mxGraphModel dx="2227" dy="580" grid="1" gridSize="10" guides="1" tooltips="1" connect="1" arrows="1" fold="1" page="1" pageScale="1" pageWidth="827" pageHeight="1169" math="0" shadow="0">
      <root>
        <mxCell id="0" />
        <mxCell id="1" parent="0" />
        <mxCell id="K1XIMJBXqGO062s2l3pD-4" style="rounded=0;orthogonalLoop=1;jettySize=auto;html=1;endArrow=none;endFill=0;strokeWidth=2;" edge="1" parent="1" source="K1XIMJBXqGO062s2l3pD-1" target="K1XIMJBXqGO062s2l3pD-2">
          <mxGeometry relative="1" as="geometry" />
        </mxCell>
        <mxCell id="K1XIMJBXqGO062s2l3pD-5" style="rounded=0;orthogonalLoop=1;jettySize=auto;html=1;endArrow=none;endFill=0;strokeWidth=2;" edge="1" parent="1" source="K1XIMJBXqGO062s2l3pD-1" target="K1XIMJBXqGO062s2l3pD-3">
          <mxGeometry relative="1" as="geometry" />
        </mxCell>
        <mxCell id="K1XIMJBXqGO062s2l3pD-1" value="BoolExpr&lt;div style=&quot;&quot;&gt;&lt;font color=&quot;#425dc0&quot; style=&quot;font-size: 11px;&quot;&gt;AND_EXPR&lt;/font&gt;&lt;/div&gt;" style="ellipse;whiteSpace=wrap;html=1;aspect=fixed;fontFamily=Courier New;fontSize=14;strokeWidth=3;fillColor=none;" vertex="1" parent="1">
          <mxGeometry x="320" y="320" width="80" height="80" as="geometry" />
        </mxCell>
        <mxCell id="K1XIMJBXqGO062s2l3pD-9" style="rounded=0;orthogonalLoop=1;jettySize=auto;html=1;endArrow=none;endFill=0;strokeWidth=2;" edge="1" parent="1" source="K1XIMJBXqGO062s2l3pD-2" target="K1XIMJBXqGO062s2l3pD-7">
          <mxGeometry relative="1" as="geometry" />
        </mxCell>
        <mxCell id="K1XIMJBXqGO062s2l3pD-10" style="rounded=0;orthogonalLoop=1;jettySize=auto;html=1;endArrow=none;endFill=0;strokeWidth=2;" edge="1" parent="1" source="K1XIMJBXqGO062s2l3pD-2" target="K1XIMJBXqGO062s2l3pD-8">
          <mxGeometry relative="1" as="geometry" />
        </mxCell>
        <mxCell id="K1XIMJBXqGO062s2l3pD-2" value="OpExpr&lt;div style=&quot;font-size: 11px;&quot;&gt;&lt;font color=&quot;#ff8000&quot;&gt;opno&lt;sub&gt;1&lt;/sub&gt;&lt;/font&gt;&lt;/div&gt;" style="ellipse;whiteSpace=wrap;html=1;aspect=fixed;fontFamily=Courier New;fontSize=14;strokeWidth=3;fillColor=none;" vertex="1" parent="1">
          <mxGeometry x="180" y="420" width="80" height="80" as="geometry" />
        </mxCell>
        <mxCell id="K1XIMJBXqGO062s2l3pD-13" style="rounded=0;orthogonalLoop=1;jettySize=auto;html=1;endArrow=none;endFill=0;strokeWidth=2;" edge="1" parent="1" source="K1XIMJBXqGO062s2l3pD-3" target="K1XIMJBXqGO062s2l3pD-11">
          <mxGeometry relative="1" as="geometry" />
        </mxCell>
        <mxCell id="K1XIMJBXqGO062s2l3pD-14" style="rounded=0;orthogonalLoop=1;jettySize=auto;html=1;endArrow=none;endFill=0;strokeWidth=2;" edge="1" parent="1" source="K1XIMJBXqGO062s2l3pD-3" target="K1XIMJBXqGO062s2l3pD-12">
          <mxGeometry relative="1" as="geometry" />
        </mxCell>
        <mxCell id="K1XIMJBXqGO062s2l3pD-3" value="OpExpr&lt;div&gt;&lt;font color=&quot;#ff8000&quot;&gt;&lt;span style=&quot;font-size: 11px;&quot;&gt;opno&lt;/span&gt;&lt;span style=&quot;font-size: 11.6667px;&quot;&gt;&lt;sub&gt;2&lt;/sub&gt;&lt;/span&gt;&lt;/font&gt;&lt;br&gt;&lt;/div&gt;" style="ellipse;whiteSpace=wrap;html=1;aspect=fixed;fontFamily=Courier New;fontSize=14;strokeWidth=3;fillColor=none;" vertex="1" parent="1">
          <mxGeometry x="460" y="420" width="80" height="80" as="geometry" />
        </mxCell>
        <mxCell id="K1XIMJBXqGO062s2l3pD-7" value="Var" style="ellipse;whiteSpace=wrap;html=1;aspect=fixed;fontFamily=Courier New;fontSize=14;strokeWidth=3;fillColor=none;" vertex="1" parent="1">
          <mxGeometry x="100" y="550" width="80" height="80" as="geometry" />
        </mxCell>
        <mxCell id="K1XIMJBXqGO062s2l3pD-8" value="Const" style="ellipse;whiteSpace=wrap;html=1;aspect=fixed;fontFamily=Courier New;fontSize=14;strokeWidth=3;fillColor=none;" vertex="1" parent="1">
          <mxGeometry x="260" y="550" width="80" height="80" as="geometry" />
        </mxCell>
        <mxCell id="K1XIMJBXqGO062s2l3pD-11" value="Var" style="ellipse;whiteSpace=wrap;html=1;aspect=fixed;fontFamily=Courier New;fontSize=14;strokeWidth=3;fillColor=none;" vertex="1" parent="1">
          <mxGeometry x="380" y="550" width="80" height="80" as="geometry" />
        </mxCell>
        <mxCell id="K1XIMJBXqGO062s2l3pD-12" value="Const" style="ellipse;whiteSpace=wrap;html=1;aspect=fixed;fontFamily=Courier New;fontSize=14;strokeWidth=3;fillColor=none;" vertex="1" parent="1">
          <mxGeometry x="540" y="550" width="80" height="80" as="geometry" />
        </mxCell>
        <mxCell id="K1XIMJBXqGO062s2l3pD-17" value="equal" style="text;html=1;align=center;verticalAlign=middle;whiteSpace=wrap;rounded=0;fontFamily=Courier New;fontSize=14;fontStyle=1;fontColor=#009900;" vertex="1" parent="1">
          <mxGeometry x="250" y="720" width="60" height="30" as="geometry" />
        </mxCell>
        <mxCell id="K1XIMJBXqGO062s2l3pD-21" value="" style="endArrow=blockThin;html=1;rounded=0;endFill=1;targetPerimeterSpacing=14;dashed=1;dashPattern=8 8;fontColor=#009900;strokeColor=#009900;" edge="1" parent="1" source="K1XIMJBXqGO062s2l3pD-17" target="K1XIMJBXqGO062s2l3pD-7">
          <mxGeometry width="50" height="50" relative="1" as="geometry">
            <mxPoint x="160" y="690" as="sourcePoint" />
            <mxPoint x="210" y="640" as="targetPoint" />
          </mxGeometry>
        </mxCell>
        <mxCell id="K1XIMJBXqGO062s2l3pD-22" value="" style="endArrow=blockThin;html=1;rounded=0;endFill=1;targetPerimeterSpacing=14;dashed=1;dashPattern=8 8;fontColor=#009900;strokeColor=#009900;" edge="1" parent="1" source="K1XIMJBXqGO062s2l3pD-17" target="K1XIMJBXqGO062s2l3pD-11">
          <mxGeometry width="50" height="50" relative="1" as="geometry">
            <mxPoint x="258" y="740" as="sourcePoint" />
            <mxPoint x="175" y="632" as="targetPoint" />
          </mxGeometry>
        </mxCell>
        <mxCell id="K1XIMJBXqGO062s2l3pD-23" value="equal" style="text;html=1;align=center;verticalAlign=middle;whiteSpace=wrap;rounded=0;fontFamily=Courier New;fontSize=14;fontStyle=1;fontColor=#009900;" vertex="1" parent="1">
          <mxGeometry x="412" y="720" width="58" height="30" as="geometry" />
        </mxCell>
        <mxCell id="K1XIMJBXqGO062s2l3pD-24" value="" style="endArrow=blockThin;html=1;rounded=0;endFill=1;targetPerimeterSpacing=14;dashed=1;dashPattern=8 8;fontColor=#009900;strokeColor=#009900;" edge="1" parent="1" source="K1XIMJBXqGO062s2l3pD-23" target="K1XIMJBXqGO062s2l3pD-8">
          <mxGeometry width="50" height="50" relative="1" as="geometry">
            <mxPoint x="322" y="701" as="sourcePoint" />
            <mxPoint x="330" y="630" as="targetPoint" />
          </mxGeometry>
        </mxCell>
        <mxCell id="K1XIMJBXqGO062s2l3pD-25" value="" style="endArrow=blockThin;html=1;rounded=0;endFill=1;targetPerimeterSpacing=14;dashed=1;dashPattern=8 8;fontColor=#009900;strokeColor=#009900;" edge="1" parent="1" source="K1XIMJBXqGO062s2l3pD-23" target="K1XIMJBXqGO062s2l3pD-12">
          <mxGeometry width="50" height="50" relative="1" as="geometry">
            <mxPoint x="420" y="751" as="sourcePoint" />
            <mxPoint x="554" y="630" as="targetPoint" />
          </mxGeometry>
        </mxCell>
        <mxCell id="K1XIMJBXqGO062s2l3pD-31" style="rounded=0;orthogonalLoop=1;jettySize=auto;html=1;dashed=1;dashPattern=8 8;targetPerimeterSpacing=14;sourcePerimeterSpacing=7;endArrow=blockThin;endFill=1;fontColor=#FF8000;strokeColor=#FF8000;" edge="1" parent="1" source="K1XIMJBXqGO062s2l3pD-30" target="K1XIMJBXqGO062s2l3pD-2">
          <mxGeometry relative="1" as="geometry" />
        </mxCell>
        <mxCell id="K1XIMJBXqGO062s2l3pD-32" style="rounded=0;orthogonalLoop=1;jettySize=auto;html=1;dashed=1;dashPattern=8 8;endArrow=blockThin;endFill=1;targetPerimeterSpacing=14;sourcePerimeterSpacing=7;fontColor=#FF8000;strokeColor=#FF8000;" edge="1" parent="1" source="K1XIMJBXqGO062s2l3pD-30" target="K1XIMJBXqGO062s2l3pD-3">
          <mxGeometry relative="1" as="geometry" />
        </mxCell>
        <mxCell id="K1XIMJBXqGO062s2l3pD-30" value="negator" style="text;html=1;align=center;verticalAlign=middle;whiteSpace=wrap;rounded=0;fontFamily=Courier New;fontSize=14;fontStyle=1;fontColor=#FF8000;" vertex="1" parent="1">
          <mxGeometry x="331" y="445" width="58" height="30" as="geometry" />
        </mxCell>
        <mxCell id="K1XIMJBXqGO062s2l3pD-33" value="&lt;font style=&quot;font-size: 20px;&quot; color=&quot;#990488&quot;&gt;SELECT &lt;/font&gt;&lt;font style=&quot;font-size: 20px;&quot; color=&quot;#425dc0&quot;&gt;*&lt;/font&gt;&lt;font style=&quot;font-size: 20px;&quot; color=&quot;#990488&quot;&gt; FROM &lt;/font&gt;&lt;font style=&quot;font-size: 20px;&quot; color=&quot;#425dc0&quot;&gt;tbl&lt;/font&gt;&lt;div style=&quot;font-size: 20px;&quot;&gt;&lt;font style=&quot;font-size: 20px;&quot; color=&quot;#990488&quot;&gt;WHERE&lt;/font&gt;&lt;/div&gt;&lt;div style=&quot;font-size: 20px;&quot;&gt;&lt;font style=&quot;font-size: 20px;&quot; color=&quot;#990488&quot;&gt;&lt;br&gt;&lt;/font&gt;&lt;/div&gt;&lt;div style=&quot;font-size: 20px;&quot;&gt;&lt;font style=&quot;font-size: 20px;&quot; color=&quot;#425dc0&quot;&gt;&amp;nbsp; &amp;nbsp; &amp;nbsp; &amp;nbsp; value&lt;/font&gt;&lt;font style=&quot;font-size: 20px;&quot; color=&quot;#990488&quot;&gt;&amp;nbsp;&amp;nbsp;&lt;/font&gt;&lt;font style=&quot;font-size: 20px;&quot; color=&quot;#333333&quot;&gt;&amp;gt;&lt;/font&gt;&lt;font style=&quot;font-size: 20px;&quot; color=&quot;#990488&quot;&gt;&amp;nbsp;&amp;nbsp;&lt;/font&gt;&lt;font style=&quot;font-size: 20px;&quot; color=&quot;#b36844&quot;&gt;0&lt;/font&gt;&lt;font style=&quot;font-size: 20px;&quot; color=&quot;#990488&quot;&gt;&amp;nbsp;&lt;/font&gt;&lt;/div&gt;&lt;div style=&quot;font-size: 20px;&quot;&gt;&lt;font style=&quot;font-size: 20px;&quot; color=&quot;#990488&quot;&gt;&amp;nbsp; &amp;nbsp; AND&lt;/font&gt;&lt;/div&gt;&lt;div style=&quot;font-size: 20px;&quot;&gt;&lt;font style=&quot;font-size: 20px;&quot; color=&quot;#425dc0&quot;&gt;&amp;nbsp; &amp;nbsp; &amp;nbsp; &amp;nbsp; value&lt;/font&gt;&lt;font style=&quot;font-size: 20px;&quot; color=&quot;#990488&quot;&gt;&amp;nbsp;&lt;/font&gt;&lt;font style=&quot;font-size: 20px;&quot; color=&quot;#333333&quot;&gt;&amp;lt;=&lt;/font&gt;&lt;font style=&quot;font-size: 20px;&quot; color=&quot;#990488&quot;&gt;&amp;nbsp;&amp;nbsp;&lt;/font&gt;&lt;font style=&quot;font-size: 20px;&quot; color=&quot;#b36844&quot;&gt;0&lt;/font&gt;&lt;/div&gt;" style="text;html=1;align=left;verticalAlign=top;whiteSpace=wrap;rounded=0;fontFamily=Courier New;fontSize=20;" vertex="1" parent="1">
          <mxGeometry x="-320" y="407" width="270" height="160" as="geometry" />
        </mxCell>
        <mxCell id="K1XIMJBXqGO062s2l3pD-34" value="" style="shape=flexArrow;endArrow=classic;html=1;rounded=0;strokeWidth=2;" edge="1" parent="1">
          <mxGeometry width="50" height="50" relative="1" as="geometry">
            <mxPoint x="-50" y="520" as="sourcePoint" />
            <mxPoint x="70" y="520" as="targetPoint" />
          </mxGeometry>
        </mxCell>
        <mxCell id="K1XIMJBXqGO062s2l3pD-35" value="" style="rounded=1;whiteSpace=wrap;html=1;fillColor=none;arcSize=8;" vertex="1" parent="1">
          <mxGeometry x="-280" y="467" width="200" height="110" as="geometry" />
        </mxCell>
      </root>
    </mxGraphModel>
  </diagram>
</mxfile>
